<svg width="100" height="100" viewBox="0 0 24 24" fill="none" xmlns="http://www.w3.org/2000/svg">
<path d="M17.5 11.25C17.5 14.8492 14.8492 17.5 11.25 17.5C7.65076 17.5 4.5 14.8492 4.5 11.25C4.5 7.65076 7.65076 4.5 11.25 4.5C14.8492 4.5 17.5 7.65076 17.5 11.25Z" fill="#3F51B5"/>
<path d="M9.5 12C9.5 12.8284 8.82843 13.5 8 13.5C7.17157 13.5 6.5 12.8284 6.5 12C6.5 11.1716 7.17157 10.5 8 10.5C8.82843 10.5 9.5 11.1716 9.5 12Z" fill="#E8EAF6"/>
<path d="M12.5 9.5C13.3284 9.5 14 8.82843 14 8C14 7.17157 13.3284 6.5 12.5 6.5C11.6716 6.5 11 7.17157 11 8C11 8.82843 11.6716 9.5 12.5 9.5Z" fill="#E8EAF6"/>
<path d="M16 10C16.5523 10 17 9.55228 17 9C17 8.44772 16.5523 8 16 8C15.4477 8 15 8.44772 15 9C15 9.55228 15.4477 10 16 10Z" fill="#E8EAF6"/>
<path d="M19.5 13C20.0523 13 20.5 12.5523 20.5 12C20.5 11.4477 20.0523 11 19.5 11C18.9477 11 18.5 11.4477 18.5 12C18.5 12.5523 18.9477 13 19.5 13Z" fill="#3F51B5"/>
</svg>
